<svg width="27" height="28" viewBox="0 0 27 28" fill="none" xmlns="http://www.w3.org/2000/svg">
	<path fill-rule="evenodd" clip-rule="evenodd" d="M13.5 27.5C20.9558 27.5 27 21.4558 27 14C27 6.54416 20.9558 0.5 13.5 0.5C6.04416 0.5 0 6.54416 0 14C0 21.4558 6.04416 27.5 13.5 27.5ZM13.9771 10.1794C16.7051 8.85514 18.0691 8.19302 18.7875 8.68371C18.9417 8.78901 19.0748 8.92216 19.1801 9.07633C19.6708 9.79475 19.0087 11.1587 17.6844 13.8867C16.9764 15.3454 16.6223 16.0747 16.0109 16.2705C15.8742 16.3143 15.732 16.3382 15.5885 16.3416C15.5034 16.3436 15.4194 16.3353 15.3351 16.3166C15.0638 16.8297 14.3412 17.1805 13.0226 17.8206L13.0226 17.8206C10.2946 19.1449 8.93065 19.807 8.21224 19.3163C8.05807 19.211 7.92491 19.0778 7.81961 18.9237C7.32892 18.2053 7.99104 16.8413 9.31529 14.1133L9.3153 14.1133C10.0234 12.6546 10.3774 11.9253 10.9888 11.7295C11.1255 11.6857 11.2677 11.6618 11.4112 11.6584C11.4964 11.6564 11.5804 11.6648 11.6646 11.6834C11.9359 11.1703 12.6585 10.8195 13.9771 10.1794Z" fill="#4d5466" />
</svg>
