<svg width="25" height="22" viewBox="0 0 25 22" fill="none" xmlns="http://www.w3.org/2000/svg">
	<path d="M8 0.5C7.60218 0.5 7.22064 0.658035 6.93934 0.93934C6.65804 1.22064 6.5 1.60218 6.5 2C6.5 2.39782 6.65804 2.77936 6.93934 3.06066C7.22064 3.34196 7.60218 3.5 8 3.5H17C17.3978 3.5 17.7794 3.34196 18.0607 3.06066C18.342 2.77936 18.5 2.39782 18.5 2C18.5 1.60218 18.342 1.22064 18.0607 0.93934C17.7794 0.658035 17.3978 0.5 17 0.5H8ZM3.5 6.5C3.5 6.10218 3.65804 5.72064 3.93934 5.43934C4.22064 5.15804 4.60218 5 5 5H20C20.3978 5 20.7794 5.15804 21.0607 5.43934C21.342 5.72064 21.5 6.10218 21.5 6.5C21.5 6.89782 21.342 7.27936 21.0607 7.56066C20.7794 7.84196 20.3978 8 20 8H5C4.60218 8 4.22064 7.84196 3.93934 7.56066C3.65804 7.27936 3.5 6.89782 3.5 6.5ZM0.5 12.5C0.5 11.7044 0.81607 10.9413 1.37868 10.3787C1.94129 9.81607 2.70435 9.5 3.5 9.5H21.5C22.2956 9.5 23.0587 9.81607 23.6213 10.3787C24.1839 10.9413 24.5 11.7044 24.5 12.5V18.5C24.5 19.2956 24.1839 20.0587 23.6213 20.6213C23.0587 21.1839 22.2956 21.5 21.5 21.5H3.5C2.70435 21.5 1.94129 21.1839 1.37868 20.6213C0.81607 20.0587 0.5 19.2956 0.5 18.5V12.5Z" fill="#4d5466" />
</svg>
