<svg width="21" height="18" viewBox="0 0 21 18" fill="none" xmlns="http://www.w3.org/2000/svg">
<path fill-rule="evenodd" clip-rule="evenodd" d="M2.09 1.96498C3.02764 1.02762 4.29918 0.501046 5.625 0.501046C6.95082 0.501046 8.22236 1.02762 9.16 1.96498L10.625 3.42873L12.09 1.96498C12.5512 1.48743 13.103 1.10652 13.713 0.844471C14.323 0.582426 14.9791 0.444495 15.643 0.438726C16.3069 0.432957 16.9653 0.559466 17.5798 0.81087C18.1943 1.06227 18.7525 1.43354 19.222 1.903C19.6914 2.37247 20.0627 2.93073 20.3141 3.54521C20.5655 4.15969 20.692 4.81809 20.6863 5.48198C20.6805 6.14588 20.5426 6.80198 20.2805 7.412C20.0185 8.02202 19.6375 8.57374 19.16 9.03498L10.625 17.5712L2.09 9.03498C1.15264 8.09734 0.626068 6.8258 0.626068 5.49998C0.626068 4.17416 1.15264 2.90262 2.09 1.96498V1.96498Z" fill="#00B8D7"/>
</svg>
