<svg width="25" height="22" viewBox="0 0 25 22" fill="none" xmlns="http://www.w3.org/2000/svg">
	<path fill-rule="evenodd" clip-rule="evenodd" d="M2.258 2.758C3.38317 1.63317 4.90902 1.00128 6.5 1.00128C8.09099 1.00128 9.61683 1.63317 10.742 2.758L12.5 4.5145L14.258 2.758C14.8115 2.18494 15.4735 1.72784 16.2056 1.41339C16.9376 1.09894 17.7249 0.933419 18.5216 0.926496C19.3183 0.919573 20.1083 1.07138 20.8457 1.37307C21.5831 1.67475 22.253 2.12027 22.8164 2.68363C23.3797 3.24698 23.8252 3.9169 24.1269 4.65427C24.4286 5.39165 24.5804 6.18173 24.5735 6.97841C24.5666 7.77508 24.4011 8.5624 24.0866 9.29443C23.7722 10.0264 23.3151 10.6885 22.742 11.242L12.5 21.4855L2.258 11.242C1.13317 10.1168 0.501282 8.59098 0.501282 7C0.501282 5.40901 1.13317 3.88316 2.258 2.758V2.758Z" fill="#4d5466" />
</svg>
