<svg width="25" height="26" viewBox="0 0 25 26" fill="none" xmlns="http://www.w3.org/2000/svg">
	<path d="M13.8851 1.24496C13.5107 0.912503 13.0151 0.727264 12.5 0.727264C11.9848 0.727264 11.4892 0.912503 11.1149 1.24496L1.34876 9.91541C1.04973 10.1812 0.81163 10.5016 0.649038 10.8569C0.486446 11.2122 0.402792 11.595 0.4032 11.9817V22.5309C0.403734 23.2841 0.72259 24.0062 1.28968 24.5385C1.85677 25.0709 2.62568 25.37 3.42739 25.37H6.45159C7.25365 25.37 9.47578 25.3485 9.47578 25.3485C9.47578 25.3485 9.47578 23.2825 9.47578 22.529V17.7942C9.47578 17.543 9.58199 17.3022 9.77104 17.1246C9.96008 16.947 10.2165 16.8472 10.4838 16.8472H14.5161C14.7835 16.8472 15.0399 16.947 15.2289 17.1246C15.418 17.3022 15.5242 17.543 15.5242 17.7942V22.529C15.5242 23.2825 15.5242 25.3485 15.5242 25.3485C15.5242 25.3485 17.7463 25.37 18.5484 25.37H21.5726C22.3746 25.37 23.1438 25.0706 23.711 24.5379C24.2781 24.0051 24.5967 23.2825 24.5967 22.529V11.9798C24.5966 11.5932 24.5125 11.2108 24.3496 10.8558C24.1866 10.5008 23.9483 10.1809 23.6492 9.91541L13.8851 1.24117V1.24496Z" fill="#4d5466" />
</svg>
