<svg width="20" height="14" viewBox="0 0 20 14" fill="none" xmlns="http://www.w3.org/2000/svg">
<path fill-rule="evenodd" clip-rule="evenodd" d="M10.7451 9.92656C11.3866 10.6757 12.1051 11.3884 12.9475 11.9925C14.6981 13.2479 16.9202 13.9961 19.9892 13.8394L19.8872 11.842C17.2351 11.9775 15.4676 11.3386 14.113 10.3672C13.2952 9.78077 12.606 9.05963 11.9539 8.25164C11.9071 8.31703 11.86 8.38311 11.8125 8.44988L11.6622 8.66123C11.3777 9.06164 11.0739 9.48927 10.7451 9.92656ZM8.82627 4.06225C8.21105 3.32314 7.52879 2.619 6.73621 2.02165C5.06165 0.759585 2.94499 0.00265121 0.0113525 0.160742L0.118974 2.15784C2.60525 2.02386 4.25242 2.65411 5.53246 3.61884C6.31073 4.2054 6.97061 4.92582 7.60704 5.73567C7.65068 5.67445 7.69473 5.61259 7.73922 5.55009L7.75789 5.52386L7.7579 5.52385C8.08513 5.06419 8.43797 4.56855 8.82627 4.06225Z" fill="#F3F4F6"/>
<path d="M0.0651855 12.8407C10.905 13.4249 8.49615 0.575017 19.9382 1.1593" stroke="#F3F4F6" stroke-width="2"/>
</svg>
