<svg width="18" height="16" viewBox="0 0 18 16" fill="none" xmlns="http://www.w3.org/2000/svg">
<path fill-rule="evenodd" clip-rule="evenodd" d="M8.383 1.076C8.56569 1.15175 8.72181 1.27996 8.83163 1.44443C8.94146 1.6089 9.00005 1.80224 9 2V14C8.99996 14.1978 8.94129 14.3911 8.8314 14.5555C8.72152 14.7199 8.56535 14.848 8.38265 14.9237C8.19995 14.9993 7.99892 15.0192 7.80497 14.9806C7.61102 14.942 7.43285 14.8468 7.293 14.707L3.586 11H1C0.734784 11 0.48043 10.8946 0.292893 10.7071C0.105357 10.5196 0 10.2652 0 10V6C0 5.73479 0.105357 5.48043 0.292893 5.2929C0.48043 5.10536 0.734784 5 1 5H3.586L7.293 1.293C7.43285 1.15307 7.61105 1.05776 7.80508 1.01913C7.9991 0.980506 8.20023 1.0003 8.383 1.076ZM13.657 0.929002C13.8445 0.741531 14.0988 0.636215 14.364 0.636215C14.6292 0.636215 14.8835 0.741531 15.071 0.929002C16.0008 1.85665 16.7382 2.95886 17.2409 4.17231C17.7435 5.38576 18.0015 6.68656 18 8C18.0015 9.31344 17.7435 10.6142 17.2409 11.8277C16.7382 13.0411 16.0008 14.1433 15.071 15.071C14.8824 15.2532 14.6298 15.354 14.3676 15.3517C14.1054 15.3494 13.8546 15.2442 13.6692 15.0588C13.4838 14.8734 13.3786 14.6226 13.3763 14.3604C13.374 14.0982 13.4748 13.8456 13.657 13.657C14.4011 12.9151 14.9912 12.0333 15.3933 11.0624C15.7955 10.0916 16.0016 9.05083 16 8C16 5.79 15.106 3.792 13.657 2.343C13.4695 2.15547 13.3642 1.90117 13.3642 1.636C13.3642 1.37084 13.4695 1.11653 13.657 0.929002ZM10.828 3.757C10.9209 3.66403 11.0312 3.59027 11.1526 3.53994C11.274 3.48962 11.4041 3.46371 11.5355 3.46371C11.6669 3.46371 11.797 3.48962 11.9184 3.53994C12.0398 3.59027 12.1501 3.66403 12.243 3.757C12.8009 4.31367 13.2433 4.97507 13.5448 5.70321C13.8463 6.43136 14.001 7.2119 14 8C14.001 8.7881 13.8463 9.56862 13.5447 10.2968C13.2432 11.0249 12.8008 11.6863 12.243 12.243C12.0554 12.4306 11.8009 12.5361 11.5355 12.5361C11.2701 12.5361 11.0156 12.4306 10.828 12.243C10.6404 12.0554 10.5349 11.8009 10.5349 11.5355C10.5349 11.2701 10.6404 11.0156 10.828 10.828C11.2002 10.4572 11.4953 10.0164 11.6965 9.53106C11.8976 9.04572 12.0008 8.52538 12 8C12.0008 7.47462 11.8977 6.95427 11.6965 6.46891C11.4954 5.98356 11.2002 5.54279 10.828 5.172C10.735 5.07913 10.6613 4.96884 10.6109 4.84744C10.5606 4.72604 10.5347 4.59592 10.5347 4.4645C10.5347 4.33309 10.5606 4.20296 10.6109 4.08156C10.6613 3.96016 10.735 3.84987 10.828 3.757Z" fill="#F3F4F6"/>
</svg>
