<svg width="18" height="14" viewBox="0 0 18 14" fill="none" xmlns="http://www.w3.org/2000/svg">
<path fill-rule="evenodd" clip-rule="evenodd" d="M8.383 0.0759938C8.56569 0.151738 8.72181 0.27995 8.83163 0.444419C8.94146 0.608888 9.00005 0.802228 9 0.999994V13C8.99996 13.1977 8.94129 13.391 8.8314 13.5555C8.72152 13.7199 8.56535 13.848 8.38265 13.9237C8.19995 13.9993 7.99892 14.0191 7.80497 13.9806C7.61102 13.942 7.43285 13.8468 7.293 13.707L3.586 9.99999H1C0.734784 9.99999 0.48043 9.89464 0.292893 9.7071C0.105357 9.51956 0 9.26521 0 8.99999V4.99999C0 4.73478 0.105357 4.48042 0.292893 4.29289C0.48043 4.10535 0.734784 3.99999 1 3.99999H3.586L7.293 0.292994C7.43285 0.153061 7.61105 0.057752 7.80508 0.019125C7.9991 -0.019502 8.20023 0.000289015 8.383 0.0759938ZM11.293 4.29299C11.4805 4.10552 11.7348 4.00021 12 4.00021C12.2652 4.00021 12.5195 4.10552 12.707 4.29299L14 5.58599L15.293 4.29299C15.3852 4.19748 15.4956 4.1213 15.6176 4.06889C15.7396 4.01648 15.8708 3.9889 16.0036 3.98774C16.1364 3.98659 16.2681 4.01189 16.391 4.06217C16.5138 4.11245 16.6255 4.18671 16.7194 4.2806C16.8133 4.37449 16.8875 4.48614 16.9378 4.60904C16.9881 4.73194 17.0134 4.86362 17.0123 4.9964C17.0111 5.12917 16.9835 5.26039 16.9311 5.3824C16.8787 5.5044 16.8025 5.61475 16.707 5.70699L15.414 6.99999L16.707 8.29299C16.8892 8.4816 16.99 8.7342 16.9877 8.9964C16.9854 9.25859 16.8802 9.50941 16.6948 9.69481C16.5094 9.88022 16.2586 9.98539 15.9964 9.98767C15.7342 9.98995 15.4816 9.88915 15.293 9.70699L14 8.41399L12.707 9.70699C12.5184 9.88915 12.2658 9.98995 12.0036 9.98767C11.7414 9.98539 11.4906 9.88022 11.3052 9.69481C11.1198 9.50941 11.0146 9.25859 11.0123 8.9964C11.01 8.7342 11.1108 8.4816 11.293 8.29299L12.586 6.99999L11.293 5.70699C11.1055 5.51947 11.0002 5.26516 11.0002 4.99999C11.0002 4.73483 11.1055 4.48052 11.293 4.29299Z" fill="#F3F4F6"/>
</svg>
